<?xml version="1.0"?>
<svg xmlns="http://www.w3.org/2000/svg" id="Capa_1" enable-background="new 0 0 526.35 526.35" height="512px" viewBox="0 0 526.35 526.35" width="512px"><g><path d="m520.259 219.2-51.244-4.944c-5.288-21.936-14.142-42.855-26.21-61.922l32.527-39.266c2.12-2.566 1.948-6.322-.398-8.684l-52.427-52.959c-2.359-2.388-6.153-2.575-8.737-.431l-39.321 32.606c-19.145-11.931-40.066-20.742-61.979-26.102l-4.94-50.784c-.341-3.275-3.151-5.733-6.442-5.636h-75.178c-3.29-.098-6.099 2.358-6.441 5.631l-4.938 50.895c-21.959 5.212-42.912 14-62.019 26.012l-39.283-32.594c-2.567-2.134-6.335-1.965-8.701.388l-53.066 52.951c-2.365 2.362-2.542 6.135-.41 8.708l32.584 39.298c-11.928 19.12-20.756 40.006-26.159 61.884l-51.386 4.949c-3.366.3-5.979 3.063-6.091 6.44v75.07c.112 3.377 2.725 6.141 6.091 6.44l51.244 4.944c5.288 21.936 14.142 42.855 26.21 61.922l-32.527 39.266c-2.129 2.579-1.942 6.355.431 8.712l53.074 52.959c2.365 2.357 6.134 2.53 8.705.401l39.322-32.603c19.145 11.935 40.067 20.749 61.981 26.111l4.942 50.784c.345 3.27 3.15 5.722 6.437 5.626h75.177c3.29.098 6.099-2.358 6.441-5.631l4.942-50.895c21.959-5.212 42.912-14 62.019-26.012l39.277 32.594c2.566 2.134 6.335 1.965 8.701-.388l53.066-52.951c2.365-2.361 2.543-6.135.411-8.708l-32.585-39.298c11.929-19.121 20.758-40.009 26.16-61.889l50.744-4.941c3.364-.302 5.975-3.064 6.086-6.44v-75.07c-.111-3.38-2.724-6.144-6.09-6.443zm-6.852 75.64-49.517 4.821c-2.814.265-5.148 2.289-5.808 5.037-5.299 23.593-14.809 46.037-28.073 66.255-1.553 2.368-1.387 5.47.411 7.658l31.812 38.385-44.728 44.638-38.398-31.836c-2.196-1.82-5.324-1.988-7.702-.414-20.156 13.353-42.639 22.806-66.281 27.868-2.726.496-4.797 2.731-5.082 5.487l-4.831 49.588h-63.421l-4.827-49.592c-.279-2.784-2.347-5.058-5.093-5.597-23.618-5.196-46.097-14.637-66.344-27.862-2.377-1.516-5.463-1.319-7.628.489l-38.398 31.85-44.718-44.621 31.827-38.381c1.823-2.199 1.988-5.334.407-7.713-13.378-20.116-22.865-42.562-27.971-66.174-.704-2.78-3.087-4.813-5.944-5.069l-50.156-4.821v-63.319l50.154-4.827c2.816-.262 5.154-2.287 5.816-5.037 5.3-23.593 14.81-46.037 28.073-66.255 1.553-2.368 1.387-5.47-.411-7.658l-31.81-38.389 44.728-44.634 38.398 31.836c2.196 1.82 5.324 1.988 7.702.414 20.157-13.352 42.64-22.804 66.282-27.864 2.726-.496 4.797-2.731 5.082-5.487l4.83-49.592h63.421l4.827 49.592c.279 2.784 2.347 5.058 5.093 5.597 23.618 5.196 46.097 14.637 66.344 27.862 2.377 1.516 5.463 1.319 7.628-.489l38.367-31.826 44.124 44.573-31.85 38.408c-1.823 2.199-1.988 5.334-.407 7.713 13.378 20.116 22.865 42.562 27.971 66.174.706 2.778 3.089 4.808 5.944 5.064l50.154 4.827z" data-original="#000000" class="active-path" data-old_color="#000000" fill="#FFFFFF"/><path d="m263.229 102.215c-88.875 0-161.189 72.206-161.189 160.96s72.309 160.96 161.189 160.96 161.195-72.206 161.195-160.96-72.315-160.96-161.195-160.96zm28.833 252.87c-2.394 1.012-3.985 3.32-4.079 5.918v4.638h-49.615v-4.923c-.095-2.629-1.722-4.958-4.158-5.952-25.092-10.717-41.359-34.762-41.265-61.256.144-17.168 7.021-33.594 19.151-45.745 12.369-12.638 29.008-20.206 46.663-21.224 19.808-1.234 39.254 5.721 53.786 19.238 13.332 12.386 20.895 29.771 20.867 47.969 0 26.174-16.308 50.25-41.35 61.337zm-53.695 53.938v-30.44h49.615v30.458c-16.414 2.873-33.203 2.867-49.615-.018zm171.702-125.427c-.066 0-.13.072-.197.072h-39.269c-3.574 0-6.472 2.897-6.472 6.471s2.897 6.472 6.472 6.472h37.091c-12.313 52.851-53.917 95.563-106.768 109.603v-41.112c28.043-13.862 45.309-41.432 45.309-71.351.039-21.765-8.999-42.56-24.938-57.381-17.109-15.96-40.029-24.183-63.382-22.741-20.865 1.202-40.53 10.147-55.147 25.084-14.446 14.573-22.586 34.239-22.665 54.759-.108 30.294 17.279 57.876 45.322 71.402v41.31c-52.851-14.064-94.357-56.722-106.665-109.572h36.988c3.574 0 6.472-2.897 6.472-6.472s-2.897-6.471-6.472-6.471h-39.261c-.03 0-.06-.078-.091-.078-.933-6.751-1.401-13.559-1.402-20.374 0-81.617 66.503-148.037 148.246-148.037s148.24 66.431 148.24 148.048c-.003 6.813-.475 13.618-1.411 20.368z" data-original="#000000" class="active-path" data-old_color="#000000" fill="#FFFFFF"/><path d="m263.175 142.55c-3.574 0-6.472 2.897-6.472 6.472v37.729c0 3.574 2.897 6.472 6.472 6.472s6.471-2.897 6.471-6.472v-37.729c0-3.574-2.897-6.472-6.471-6.472z" data-original="#000000" class="active-path" data-old_color="#000000" fill="#FFFFFF"/><path d="m163.972 185.681c-2.591-2.462-6.688-2.357-9.15.234s-2.357 6.688.234 9.15l27.957 26.56c2.591 2.462 6.688 2.357 9.15-.234s2.357-6.688-.234-9.15z" data-original="#000000" class="active-path" data-old_color="#000000" fill="#FFFFFF"/><path d="m362.378 185.681-27.957 26.56c-2.591 2.462-2.696 6.558-.234 9.15 2.462 2.591 6.558 2.696 9.15.234l27.957-26.56c2.591-2.462 2.696-6.558.234-9.15-2.462-2.591-6.559-2.696-9.15-.234z" data-original="#000000" class="active-path" data-old_color="#000000" fill="#FFFFFF"/></g> </svg>
